<svg xmlns="http://www.w3.org/2000/svg" width="83.935" height="65.459" viewBox="0 0 83.935 65.459">
  <path id="Icon_map-lawyer" data-name="Icon map-lawyer" d="M.5,40.56a10.839,10.839,0,0,0,21.5,0ZM59.06,62.382a1.679,1.679,0,0,1-1.675,1.684H26.067a1.675,1.675,0,1,1,0-3.351H57.383A1.671,1.671,0,0,1,59.06,62.382ZM24.571,64.923H58.878V69.77H24.571ZM61.944,40.56a10.834,10.834,0,0,0,21.489,0Zm20.9-3.372-8.8-12.124h4.705a2.088,2.088,0,0,0,0-4.177H53.821a12.343,12.343,0,0,0-9.458-7.944V6.4a2.084,2.084,0,0,0-2.09-2.092l-.195.022-.195-.022A2.082,2.082,0,0,0,39.8,6.4v6.539a12.335,12.335,0,0,0-9.454,7.944H5.412a2.088,2.088,0,0,0,0,4.177H9.9L1.1,37.184H0v2.239H22.491V37.184h-1.1l-8.8-12.12H33.015a8.848,8.848,0,0,1,.123-1.383,1.973,1.973,0,0,0,.121-.643,8.924,8.924,0,0,1,6.539-6.6V39.429h-.087c-.18,8.649-4.294,16.191-10.4,20.43h25.54c-6.105-4.239-10.217-11.781-10.406-20.43h-.081V16.436a8.922,8.922,0,0,1,6.537,6.6,2.122,2.122,0,0,0,.126.643,9.306,9.306,0,0,1,.109,1.383H71.351l-8.8,12.124h-1.1v2.239H83.935V37.188Zm-72.493,0H3.324l7.025-9.678v9.678Zm1.8,0V27.51l7.025,9.678H12.147Zm59.647,0H64.766l7.029-9.678Zm1.789,0V27.51l7.034,9.678ZM13.33,17.97a2.086,2.086,0,1,1-2.082-2.092A2.087,2.087,0,0,1,13.33,17.97Zm61.447-.111a2.087,2.087,0,1,1-1.018-1.877A2.075,2.075,0,0,1,74.777,17.859Z" transform="translate(0 -4.311)" fill="#fff"/>
</svg>
